<?xml version="1.0" standalone="no"?>
<!DOCTYPE svg PUBLIC "-//W3C//DTD SVG 20010904//EN"
 "http://www.w3.org/TR/2001/REC-SVG-20010904/DTD/svg10.dtd">
<svg version="1.0" xmlns="http://www.w3.org/2000/svg"
 width="1024.000000pt" height="1024.000000pt" viewBox="0 0 1024.000000 1024.000000"
 preserveAspectRatio="xMidYMid meet">
<metadata>
Created by potrace 1.11, written by Peter Selinger 2001-2013
</metadata>
<g transform="translate(0.000000,1024.000000) scale(0.100000,-0.100000)"
fill="#000000" stroke="none">
<path d="M2609 10236 c-2 -2 -69 -7 -149 -10 -80 -4 -161 -8 -180 -11 -19 -2
-66 -7 -105 -10 -106 -10 -116 -12 -165 -19 -25 -4 -58 -10 -75 -12 -150 -23
-387 -80 -497 -121 -69 -26 -237 -106 -323 -156 -270 -154 -529 -402 -718
-685 -111 -167 -249 -478 -271 -612 -3 -19 -10 -51 -16 -70 -6 -19 -13 -50
-16 -69 -7 -41 -10 -58 -18 -91 -3 -14 -8 -43 -11 -65 -7 -48 -14 -99 -19
-140 -3 -16 -8 -61 -11 -100 -4 -38 -8 -86 -10 -105 -17 -146 -20 -636 -20
-2835 0 -2218 3 -2686 20 -2848 2 -23 7 -69 10 -102 5 -61 10 -103 19 -165 3
-19 8 -53 11 -75 3 -23 8 -52 10 -65 3 -14 10 -47 15 -75 22 -110 81 -315 115
-400 70 -173 178 -360 299 -515 303 -389 746 -673 1195 -766 14 -3 28 -7 31
-9 4 -2 20 -7 36 -9 16 -3 40 -8 54 -11 109 -22 245 -40 365 -50 39 -3 84 -8
100 -10 108 -17 604 -20 2845 -20 2184 0 2731 4 2833 20 12 2 57 6 100 10 43
4 88 8 100 10 12 2 58 9 102 15 119 17 307 58 422 91 411 118 810 404 1083
774 186 252 299 502 365 804 26 119 30 136 41 211 4 30 8 57 9 60 3 12 15 121
21 184 11 121 13 148 21 311 10 204 11 5050 0 5250 -9 197 -22 358 -32 417 -2
13 -6 43 -9 68 -3 25 -8 59 -11 75 -15 87 -17 102 -22 125 -16 90 -80 320
-110 395 -133 338 -374 665 -650 884 -43 34 -85 68 -93 75 -50 39 -251 157
-346 203 -104 49 -257 106 -314 116 -14 3 -61 14 -105 25 -98 25 -177 41 -230
47 -22 2 -50 7 -63 9 -13 3 -50 8 -83 11 -33 4 -68 8 -77 10 -10 2 -65 6 -122
10 -58 4 -125 9 -150 12 -50 6 -5195 15 -5201 9z"/>
</g>
</svg>
